HIERARCHY
ROOT Hips
{
	OFFSET 45.262299 -9.669207 98.318100
	CHANNELS 6 Xposition Yposition Zposition Xrotation Yrotation Zrotation
	JOINT spine
	{
		OFFSET 0.000000 -0.477352 8.301033
		CHANNELS 3 Xrotation Yrotation Zrotation
		JOINT spine1
		{
			OFFSET 0.000000 -0.000002 10.456497
			CHANNELS 3 Xrotation Yrotation Zrotation
			JOINT spine2
			{
				OFFSET 0.000000 -0.000002 10.019203
				CHANNELS 3 Xrotation Yrotation Zrotation
				JOINT Neck
				{
					OFFSET 0.000000 -1.226414 25.723495
					CHANNELS 3 Xrotation Yrotation Zrotation
					JOINT Head
					{
						OFFSET 0.000000 -0.000001 7.771744
						CHANNELS 3 Xrotation Yrotation Zrotation
						End Site
						{
							OFFSET 0.000000 6.203937 18.811996
						}
					}
				}
				JOINT RightShoulder
				{
					OFFSET -4.218800 0.587437 10.819992
					CHANNELS 3 Xrotation Yrotation Zrotation
					JOINT RightArm
					{
						OFFSET 0.000000 -0.000002 14.191406
						CHANNELS 3 Xrotation Yrotation Zrotation
						JOINT RightArmRoll
						{
							OFFSET 0.000000 -0.000001 7.164093
							CHANNELS 3 Xrotation Yrotation Zrotation
							JOINT RightForeArm
							{
								OFFSET 0.000000 -0.000004 20.866501
								CHANNELS 3 Xrotation Yrotation Zrotation
								JOINT RightForeArmRoll
								{
									OFFSET 0.000000 -0.000001 8.039215
									CHANNELS 3 Xrotation Yrotation Zrotation
									JOINT RightHand
									{
										OFFSET 0.000000 -0.000003 16.132996
										CHANNELS 3 Xrotation Yrotation Zrotation
										End Site
										{
											OFFSET 0.000000 0.000000 0.100006
										}
									}
								}
							}
						}
					}
				}
				JOINT LeftShoulder
				{
					OFFSET 4.218800 0.587437 10.819992
					CHANNELS 3 Xrotation Yrotation Zrotation
					JOINT LeftArm
					{
						OFFSET 0.000000 -0.000002 14.191406
						CHANNELS 3 Xrotation Yrotation Zrotation
						JOINT LeftArmRoll
						{
							OFFSET 0.000000 -0.000001 7.164093
							CHANNELS 3 Xrotation Yrotation Zrotation
							JOINT LeftForeArm
							{
								OFFSET 0.000000 -0.000004 20.866501
								CHANNELS 3 Xrotation Yrotation Zrotation
								JOINT LeftForeArmRoll
								{
									OFFSET 0.000000 -0.000001 8.039215
									CHANNELS 3 Xrotation Yrotation Zrotation
									JOINT LeftHand
									{
										OFFSET 0.000000 -0.000003 16.132996
										CHANNELS 3 Xrotation Yrotation Zrotation
										End Site
										{
											OFFSET 0.000000 0.000000 0.100006
										}
									}
								}
							}
						}
					}
				}
			}
		}
	}
	JOINT RightUpLeg
	{
		OFFSET -7.357731 1.131810 -1.349213
		CHANNELS 3 Xrotation Yrotation Zrotation
		JOINT RightUpLegRoll
		{
			OFFSET 0.000000 -0.000003 18.916801
			CHANNELS 3 Xrotation Yrotation Zrotation
			JOINT RightLeg
			{
				OFFSET 0.000000 0.000004 -23.425598
				CHANNELS 3 Xrotation Yrotation Zrotation
				JOINT RightLegRoll
				{
					OFFSET 0.000000 -0.000004 23.502296
					CHANNELS 3 Xrotation Yrotation Zrotation
					JOINT RightFoot
					{
						OFFSET 0.000000 -0.000003 19.561707
						CHANNELS 3 Xrotation Yrotation Zrotation
						JOINT RightToeBase
						{
							OFFSET 0.000000 -0.000003 16.352600
							CHANNELS 3 Xrotation Yrotation Zrotation
							End Site
							{
								OFFSET 0.006931 0.912836 7.919434
							}
						}
					}
				}
			}
		}
	}
	JOINT LeftUpLeg
	{
		OFFSET 7.357731 1.131810 -1.349213
		CHANNELS 3 Xrotation Yrotation Zrotation
		JOINT LeftUpLegRoll
		{
			OFFSET 0.000000 -0.000003 18.916901
			CHANNELS 3 Xrotation Yrotation Zrotation
			JOINT LeftLeg
			{
				OFFSET 0.000000 -0.000004 23.425507
				CHANNELS 3 Xrotation Yrotation Zrotation
				JOINT LeftLegRoll
				{
					OFFSET 0.000000 -0.000004 23.719498
					CHANNELS 3 Xrotation Yrotation Zrotation
					JOINT LeftFoot
					{
						OFFSET 0.000000 -0.000003 19.344406
						CHANNELS 3 Xrotation Yrotation Zrotation
						JOINT LeftToeBase
						{
							OFFSET 0.000000 -0.000003 16.352600
							CHANNELS 3 Xrotation Yrotation Zrotation
							End Site
							{
								OFFSET -0.031063 0.912835 7.919434
							}
						}
					}
				}
			}
		}
	}
}
MOTION
Frames: 6
Frame Time: 0.041667
42.983200 -10.303118 98.690598 -3.069521 -0.566912 2.499490 -0.797308 -0.466839 0.211672 2.409936 -0.911944 0.421454 4.055078 -0.906831 0.432350 17.782111 3.767463 5.708168 -3.512958 3.036544 5.502034 2.036720 -62.914122 1.820374 127.744017 -41.180624 95.725012 -0.000002 -0.000002 -0.000003 66.420127 -18.501480 9.550920 -0.000014 -0.000000 -3.000002 -5.000040 -7.998915 -0.000006 -8.037750 60.327516 9.587953 -71.512313 115.479347 77.349939 0.000004 -0.000006 0.000002 59.726992 8.824649 -2.807710 -0.000006 -0.000001 3.000012 -5.000142 7.998952 -0.000137 -0.321171 -174.816083 1.321320 -179.999991 0.000005 -1.162001 173.359968 -3.060371 -0.728085 -0.000003 -0.000002 0.053971 67.896609 6.940708 2.085735 25.456882 -7.347825 -0.000005 -1.570953 172.446799 -0.519559 -0.000005 -0.000005 -1.217690 -10.654991 2.791465 1.032525 -0.000001 -0.000003 -0.138382 68.641332 -6.959494 -2.005271 25.456957 7.355613 -0.000000 
42.953999 -10.338215 98.742500 -3.085241 -0.569706 2.548263 -0.794519 -0.466849 0.213659 2.415528 -0.913587 0.425446 4.060671 -0.908425 0.436360 17.868881 3.674769 5.762549 -3.584094 3.171408 5.551113 2.002421 -62.998639 1.770228 127.620473 -41.366655 95.856917 -0.000005 -0.000000 0.000002 66.241005 -18.498408 9.527166 -0.000014 -0.000000 -3.000001 -5.000040 -7.998915 -0.000005 -8.039411 60.304089 9.588243 -71.343450 115.448420 77.211682 0.000004 -0.000006 0.000001 59.911482 8.776791 -2.786111 -0.000006 -0.000001 3.000011 -5.000142 7.998953 -0.000136 -0.355667 -174.833090 1.272208 -179.999991 0.000005 -1.162002 173.236998 -2.993060 -0.733778 -0.000003 -0.000002 0.056792 67.966161 6.940586 2.081133 25.456878 -7.347824 -0.000005 -1.488498 172.443521 -0.517118 -0.000005 -0.000003 -1.218810 -10.507368 2.775727 1.024161 -0.000001 -0.000002 -0.134637 68.579109 -6.960139 -2.005212 25.456957 7.355613 -0.000001 
42.933998 -10.344518 98.779800 -3.101145 -0.572396 2.596619 -0.791701 -0.466865 0.215681 2.421190 -0.915297 0.429509 4.066335 -0.910085 0.440443 17.955961 3.581283 5.817387 -3.655679 3.307860 5.600603 1.967279 -63.081961 1.719231 127.501286 -41.553003 95.992476 -0.000003 -0.000002 -0.000002 66.062682 -18.495000 9.503408 -0.000014 -0.000001 -3.000001 -5.000040 -7.998916 -0.000006 -8.041688 60.280839 9.589261 -71.176630 115.417752 77.075263 0.000004 -0.000007 0.000002 60.096341 8.729215 -2.764181 -0.000007 -0.000000 3.000013 -5.000142 7.998952 -0.000136 -0.392445 -174.850124 1.221121 -179.999991 0.000006 -1.162002 173.109478 -2.921781 -0.738924 -0.000003 -0.000002 0.059707 68.038356 6.940451 2.076364 25.456877 -7.347824 -0.000006 -1.403229 172.440242 -0.514562 -0.000005 -0.000003 -1.219969 -10.354841 2.759593 1.015644 -0.000001 -0.000003 -0.130782 68.514597 -6.960861 -2.005212 25.456959 7.355613 -0.000000 
42.930500 -10.329318 98.763702 -3.117157 -0.575023 2.644666 -0.788861 -0.466882 0.217727 2.426892 -0.917052 0.433619 4.072027 -0.911792 0.444575 18.043364 3.487312 5.872645 -3.727592 3.445384 5.650481 1.931491 -63.164476 1.667571 127.385801 -41.739248 96.131477 -0.000002 -0.000003 0.000001 65.884975 -18.491344 9.479699 -0.000015 0.000000 -3.000001 -5.000040 -7.998921 -0.000006 -8.044389 60.257766 9.590798 -71.010820 115.387399 76.939677 0.000001 -0.000006 0.000002 60.281549 8.681865 -2.741744 -0.000007 -0.000001 3.000009 -5.000139 7.998952 -0.000139 -0.430815 -174.868156 1.168662 -179.999991 0.000006 -1.162002 172.978748 -2.849502 -0.743803 -0.000003 -0.000002 0.062688 68.112258 6.940324 2.071392 25.456882 -7.347824 -0.000005 -1.315974 172.437975 -0.511952 -0.000005 -0.000004 -1.221140 -10.198811 2.743198 1.007053 -0.000001 -0.000002 -0.126850 68.448645 -6.961597 -2.005107 25.456953 7.355614 -0.000001 
42.907600 -10.346615 98.847885 -3.133238 -0.577623 2.692541 -0.786014 -0.466901 0.219787 2.432614 -0.918835 0.437760 4.077749 -0.913525 0.448736 18.130992 3.393127 5.928271 -3.799689 3.583476 5.700758 1.895244 -63.246595 1.615438 127.273171 -41.925911 96.272787 -0.000004 -0.000003 -0.000001 65.707526 -18.487686 9.456131 -0.000014 -0.000002 -3.000001 -5.000041 -7.998916 -0.000004 -8.047348 60.234755 9.592638 -70.845639 115.357196 76.804719 0.000004 -0.000007 0.000002 60.466934 8.634829 -2.719158 -0.000006 -0.000001 3.000012 -5.000140 7.998953 -0.000138 -0.470099 -174.885163 1.115428 -179.999991 0.000005 -1.162002 172.846174 -2.776249 -0.748307 -0.000002 -0.000002 0.065708 68.187138 6.940215 2.066460 25.456882 -7.347825 -0.000005 -1.227606 172.435707 -0.509299 -0.000005 -0.000004 -1.222320 -10.040884 2.726614 0.998465 -0.000001 -0.000003 -0.122873 68.381860 -6.962349 -2.004962 25.456955 7.355613 0.000000 
42.895000 -10.341515 98.834404 -3.149330 -0.580237 2.740385 -0.783159 -0.466921 0.221852 2.438335 -0.920623 0.441905 4.083482 -0.915263 0.452904 18.218655 3.299038 5.984210 -3.871869 3.721610 5.751389 1.858732 -63.328606 1.563012 127.162030 -42.113212 96.415224 -0.000002 0.000003 0.000002 65.530269 -18.483928 9.432704 -0.000014 -0.000002 -3.000001 -5.000041 -7.998917 -0.000005 -8.050368 60.211765 9.594540 -70.680491 115.327252 76.669775 0.000004 -0.000004 0.000001 60.652353 8.588034 -2.696237 -0.000007 -0.000001 3.000012 -5.000141 7.998955 -0.000139 -0.509606 -174.903195 1.062025 -179.999991 0.000005 -1.162001 172.713177 -2.702031 -0.752380 -0.000003 -0.000002 0.068737 68.262352 6.940103 2.061411 25.456880 -7.347826 -0.000005 -1.138942 172.432483 -0.506626 -0.000005 -0.000005 -1.223500 -9.882421 2.709976 0.989952 -0.000001 -0.000002 -0.118885 68.314773 -6.963082 -2.005033 25.456957 7.355614 -0.000001 
